<svg id="visual" viewBox="0 0 960 540" width="960" height="540" xmlns="http://www.w3.org/2000/svg" xmlns:xlink="http://www.w3.org/1999/xlink" version="1.1"><path d="M0 141L40 136.5C80 132 160 123 240 118.5C320 114 400 114 480 127.5C560 141 640 168 720 175.3C800 182.7 880 170.3 920 164.2L960 158L960 0L920 0C880 0 800 0 720 0C640 0 560 0 480 0C400 0 320 0 240 0C160 0 80 0 40 0L0 0Z" fill="#badeda"></path><path d="M0 298L40 294.3C80 290.7 160 283.3 240 296.8C320 310.3 400 344.7 480 353.7C560 362.7 640 346.3 720 338.2C800 330 880 330 920 330L960 330L960 156L920 162.2C880 168.3 800 180.7 720 173.3C640 166 560 139 480 125.5C400 112 320 112 240 116.5C160 121 80 130 40 134.5L0 139Z" fill="#e9e9d7"></path><path d="M0 384L40 385.8C80 387.7 160 391.3 240 406.7C320 422 400 449 480 450C560 451 640 426 720 422.5C800 419 880 437 920 446L960 455L960 328L920 328C880 328 800 328 720 336.2C640 344.3 560 360.7 480 351.7C400 342.7 320 308.3 240 294.8C160 281.3 80 288.7 40 292.3L0 296Z" fill="#e9e9d7"></path><path d="M0 541L40 541C80 541 160 541 240 541C320 541 400 541 480 541C560 541 640 541 720 541C800 541 880 541 920 541L960 541L960 453L920 444C880 435 800 417 720 420.5C640 424 560 449 480 448C400 447 320 420 240 404.7C160 389.3 80 385.7 40 383.8L0 382Z" fill="#badeda"></path></svg>